<svg width="56" height="56" viewBox="0 0 56 56" xmlns="http://www.w3.org/2000/svg">
  <rect width="56" height="56" rx="10" fill="#2b2b2b"/>
  <path d="M28 12c-8.3 0-15 6.7-15 15 0 6.6 4.3 12.2 10.3 14.2.75.14 1-.32 1-.72v-2.8c-4.2.9-5.1-1.8-5.1-1.8-.7-1.7-1.7-2.2-1.7-2.2-1.35-.9.1-.9.1-.9 1.5.1 2.3 1.55 2.3 1.55 1.35 2.3 3.5 1.65 4.35 1.25.14-.97.53-1.65.96-2.03-3.35-.38-6.87-1.68-6.87-7.45 0-1.65.6-3 1.55-4.05-.15-.38-.67-1.9.15-4 0 0 1.25-.4 4.1 1.55a14 14 0 0 1 7.5 0c2.85-1.95 4.1-1.55 4.1-1.55.82 2.1.3 3.62.15 4 .95 1.05 1.55 2.4 1.55 4.05 0 5.8-3.53 7.06-6.9 7.43.55.48 1.03 1.4 1.03 2.83v4.2c0 .4.25.87 1.01.72C38.7 39.2 43 33.6 43 27c0-8.3-6.7-15-15-15z" fill="#e6e6e6"/>
</svg>